inDegrees=yes
name=ik_S53_A02_T01
DataType=double
version=3
OpenSimVersion=4.3-2021-08-27-4bc7ad9
endheader
time	pelvis_tilt	pelvis_list	pelvis_rotation	pelvis_tx	pelvis_ty	pelvis_tz	hip_flexion_r	hip_adduction_r	hip_rotation_r	knee_angle_r	knee_angle_r_beta	ankle_angle_r	subtalar_angle_r	mtp_angle_r	hip_flexion_l	hip_adduction_l	hip_rotation_l	knee_angle_l	knee_angle_l_beta	ankle_angle_l	subtalar_angle_l	mtp_angle_l	lumbar_extension	lumbar_bending	lumbar_rotation	arm_flex_r	arm_add_r	arm_rot_r	elbow_flex_r	pro_sup_r	wrist_flex_r	wrist_dev_r	arm_flex_l	arm_add_l	arm_rot_l	elbow_flex_l	pro_sup_l	wrist_flex_l	wrist_dev_l
27.23999999999951	-1.799484032834907	-0.4560035935340773	-64.90080749274199	0	0.9399999999999999	0	10.65469670516132	0.5904218885085851	12.98499656838373	4.38242259339665	0.07648770346856025	0	0	0	2.096057092876912	-7.486174819554497	-3.084521616294345	17.18647077704168	0.2999605018571656	0	0	0	0	0	0	38.18338370164096	-38.18338370164096	4.81755275606073	82.45302208722524	85.18244751058378	0	0	38.18338370164096	-38.18338370164096	4.81755275606073	82.45302208722524	85.18244751054975	0	0
27.25999999999951	-1.780344543977779	-0.07536701035962805	-67.24262212369746	0	0.9399999999999999	0	11.80674501157455	-0.4071123733214246	10.30082637679186	4.223056881490098	0.07370624708100618	0	0	0	2.047136320030778	-6.700569538682896	-3.67006019132776	16.37282889518626	0.2857597720866659	0	0	0	0	0	0	38.20691680901096	-38.20691680901096	4.818649008084572	82.46833188158676	85.18135125860961	0	0	38.20691680901096	-38.20691680901096	4.818649008084572	82.46833188158676	85.18135125857579	0	0
27.27999999999951	-1.828172015141834	0.3716490077557905	-69.43126201177746	0	0.9399999999999999	0	12.08158129639668	-0.3392205679283405	11.63887306503844	3.127475091136386	0.05458473761443965	0	0	0	2.197541460746726	-6.663121809757418	-5.881403457545857	16.29822027445961	0.2844576060046141	0	0	0	0	0	0	38.21084840325614	-38.21084840325614	4.818859485788312	82.47127220747959	85.18114078091567	0	0	38.21084840325614	-38.21084840325614	4.818859485788312	82.47127220747959	85.18114078088188	0	0
27.29999999999951	-1.864465709928413	0.9193065180861758	-71.59949253873458	0	0.9399999999999999	0	13.63655228078568	-0.9111075674658445	8.922965915703484	3.780012549583082	0.06597366475693019	0	0	0	2.451668245732218	-6.268812617194969	-6.775000575907193	15.41076568065131	0.2689686013807103	0	0	0	0	0	0	38.22954139412898	-38.22954139412898	4.819738642815859	82.48355039526186	85.18026162392799	0	0	38.22954139412898	-38.22954139412898	4.819738642815859	82.48355039526186	85.18026162389434	0	0
27.31999999999951	-1.836605816891097	1.874903755622375	-75.32413592349074	0	0.9399999999999999	0	14.34638839761927	-0.593501356957027	11.57186161396043	2.393435043976727	0.04177332195000917	0	0	0	3.021262249836605	-5.801541581509261	-8.912318898682317	14.7857387901085	0.2580598242272361	0	0	0	0	0	0	38.23119245125896	-38.23119245125896	4.819826964133579	82.48478421670254	85.18017330261438	0	0	38.23119245125896	-38.23119245125896	4.819826964133579	82.48478421670254	85.18017330258073	0	0
27.33999999999951	-1.763266370959931	2.032566188456068	-76.84958082070389	0	0.9399999999999999	0	15.63635849306845	-1.310156856033273	7.929161397874453	3.251096073272849	0.05674233077727003	0	0	0	3.024709960408699	-5.775560681924196	-10.44632856884229	14.88526179433305	0.2597968283324307	0	0	0	0	0	0	38.26376087676944	-38.26376087676944	4.82133021361587	82.50577744768789	85.17867005319998	0	0	38.26376087676944	-38.26376087676944	4.82133021361587	82.50577744768789	85.17867005316661	0	0
27.35999999999951	-1.683305539276448	1.979393581862192	-77.65317146142399	0	0.9399999999999999	0	16.30484706705855	-2.656433895667962	1.856422473837931	3.837481672455419	0.06697669016928565	0	0	0	3.607850669283994	-4.868014127500882	-5.423395136238686	13.95126111436542	0.2434954412511298	0	0	0	0	0	0	38.28107862358529	-38.28107862358529	4.822146158908537	82.51717283893849	85.17785410794443	0	0	38.28107862358529	-38.28107862358529	4.822146158908537	82.51717283893849	85.1778541079112	0	0
27.37999999999951	-1.481196865506323	1.669402391147444	-79.1430078762416	0	0.9399999999999999	0	16.32546257030837	-3.078730046102063	-0.2146123875088159	4.833179135338113	0.08435488925034269	0	0	0	3.144396409527451	-4.826371004636496	-6.917203875894875	14.0178839014356	0.2446582282423594	0	0	0	0	0	0	38.302071452408	-38.302071452408	4.823109522431904	82.53062624372882	85.17689074446452	0	0	38.302071452408	-38.302071452408	4.823109522431904	82.53062624372882	85.17689074443149	0	0
27.3999999999995	-1.256779214556931	1.307051477303121	-80.63886340030751	0	0.9399999999999999	0	16.48936300588819	-3.489824399796633	-2.099235040429625	6.993171122183152	0.1220538612374827	0	0	0	2.742569019345406	-3.849275318343198	-4.452214734934529	12.40604508956803	0.216526333963837	0	0	0	0	0	0	38.31457640324334	-38.31457640324334	4.823684175312882	82.5386513188768	85.17631609160951	0	0	38.31457640324334	-38.31457640324334	4.823684175312882	82.5386513188768	85.17631609157657	0	0
27.4199999999995	-1.056882635550369	1.010342228419881	-82.21059418605884	0	0.9399999999999999	0	16.76959486523616	-3.91813255858315	-3.840061493792578	9.70859225638282	0.1694469006075057	0	0	0	2.171499090455528	-3.448494580132152	-4.334491099787186	11.3078964256366	0.1973600241018567	0	0	0	0	0	0	38.33302206173278	-38.33302206173278	4.824537642728736	82.55057022152656	85.17546262423222	0	0	38.33302206173278	-38.33302206173278	4.824537642728736	82.55057022152656	85.17546262419941	0	0
27.4399999999995	-0.8939730076605213	0.8986142581725927	-83.84101631976792	0	0.9399999999999999	0	17.42440307046458	-4.32531590489917	-5.142003873919032	13.05130491955966	0.2277882425280497	0	0	0	1.71413196595873	-3.003676956721375	-4.493951039676532	10.47158799689645	0.1827636884581608	0	0	0	0	0	0	38.35445836117032	-38.35445836117032	4.825523615639792	82.56433940697742	85.17447665136572	0	0	38.35445836117032	-38.35445836117032	4.825523615639792	82.56433940697742	85.17447665133308	0	0
27.4599999999995	-0.822520901252795	0.8883818541926564	-84.62462444712773	0	0.9399999999999999	0	18.24025599032078	-4.921779640103549	-6.572315668675854	16.72302373006346	0.2918718249787509	0	0	0	1.428462589290211	-2.589348294284085	-3.982460262945041	9.734649819778188	0.169901690883802	0	0	0	0	0	0	38.37507746936059	-38.37507746936059	4.826452139937738	82.57730572220794	85.17354812710958	0	0	38.37507746936059	-38.37507746936059	4.826452139937738	82.57730572220794	85.17354812707705	0	0
27.4799999999995	-0.6742242891126971	0.9321847125126526	-86.32080244676581	0	0.9399999999999999	0	19.07265958893909	-5.152201526698867	-6.371134582879593	20.21142985694787	0.3527559975396268	0	0	0	1.153562162277222	-2.244386411686093	-4.664637655468299	9.005852593819055	0.157181779711414	0	0	0	0	0	0	38.37679033190928	-38.37679033190928	4.826542339788066	82.57856570510423	85.17345792726337	0	0	38.37679033190928	-38.37679033190928	4.826542339788066	82.57856570510423	85.17345792723088	0	0
27.4999999999995	-0.5061052989084265	0.9954532722399284	-87.91611271486104	0	0.9399999999999999	0	19.72432825883399	-5.072657890233119	-5.637516512761718	20.81151963937776	0.3632295400506049	0	0	0	0.92340627162283	-1.937776369556501	-5.57460763013535	8.488652254034033	0.148154930889732	0	0	0	0	0	0	38.3783748930116	-38.3783748930116	4.826625758546465	82.57973096322993	85.17337450850886	0	0	38.3783748930116	-38.3783748930116	4.826625758546465	82.57973096322993	85.1733745084764	0	0
27.5199999999995	-0.3378788936329323	1.073236407740787	-89.39660553230854	0	0.9399999999999999	0	20.10058384195139	-5.070109908954907	-4.518737928179435	23.60432740957012	0.4119732310157427	0	0	0	0.9689744561300804	-1.771531374748617	-6.960306953282051	8.310393491027304	0.1450437285547323	0	0	0	0	0	0	38.37997749582882	-38.37997749582882	4.82670992662726	82.5809066826092	85.17329034043198	0	0	38.37997749582882	-38.37997749582882	4.82670992662726	82.5809066826092	85.17329034039956	0	0
27.5399999999995	-0.2497614603075724	1.19392756662363	-90.77630764354012	0	0.9399999999999999	0	20.28598979939741	-4.789766722675525	-3.335013503717213	25.89631982615014	0.4519760451158056	0	0	0	0.7695291663905521	-1.492841496406815	-7.767752406983955	7.723556052753314	0.1348014830828822	0	0	0	0	0	0	38.3817995076497	-38.3817995076497	4.826805725835684	82.58224487600575	85.17319454122803	0	0	38.3817995076497	-38.3817995076497	4.826805725835684	82.58224487600575	85.1731945411956	0	0
27.5599999999995	-0.2528685102635765	1.413184752462979	-93.17110439257159	0	0.9399999999999999	0	20.56724790220574	-4.508340806312688	-1.168457043268083	27.7702568245608	0.4846824157130112	0	0	0	0.938087056578654	-1.531747672321096	-10.12743402160524	7.609150963002545	0.1328047375856916	0	0	0	0	0	0	38.3856793358698	-38.3856793358698	4.827009380495503	82.58508966006376	85.17299088657754	0	0	38.3856793358698	-38.3856793358698	4.827009380495503	82.58508966006376	85.17299088654514	0	0
27.5799999999995	-0.2790257811850446	1.402475416173664	-93.6326609761817	0	0.9399999999999999	0	20.53063266439295	-4.545544523665877	-1.02310741004213	29.26783235830776	0.5108200395742072	0	0	0	0.2554856792479389	-1.360157005680952	-9.872475797475923	6.712429851467598	0.1171540017172635	0	0	0	0	0	0	38.38709371095607	-38.38709371095607	4.827083737587746	82.58612833236003	85.17291652948865	0	0	38.38709371095607	-38.38709371095607	4.827083737587746	82.58612833236003	85.17291652945623	0	0
